<?xml version="1.0" encoding="utf-8"?>
<!-- Generator: Adobe Illustrator 26.0.0, SVG Export Plug-In . SVG Version: 6.00 Build 0)  -->
<svg version="1.1" id="Layer_1" xmlns="http://www.w3.org/2000/svg" xmlns:xlink="http://www.w3.org/1999/xlink" x="0px" y="0px"
	 viewBox="0 0 1000 308.9" style="enable-background:new 0 0 1000 308.9;" xml:space="preserve">
<style type="text/css">
	.st0{fill:#AACF37;}
	.st1{fill:#FFFFFF;}
</style>
<g>
	<path class="st0" d="M155.3,4.6c0,0,22.7,4.6,72,17.3c46.5,12,62.8,16.8,62.8,16.8s2.4,48-18.7,134.8
		c-17,70.1-80.6,108.9-116.1,130.9c-35.5-22-99.1-60.8-116.1-130.9C18.1,86.6,20.5,38.6,20.5,38.6s16.3-4.8,62.8-16.8
		C132.6,9.1,155.3,4.6,155.3,4.6z"/>
	<g>
		<g>
			<path d="M374.6,59H344V45.1h76.6V59h-30.6v74.5h-15.5V59z"/>
			<path d="M479.5,102.6l-0.4,5.1h-53.6c0.4,1.9,1,3.6,1.9,5.2c0.9,1.7,2,3.2,3.2,4.5c1.4,1.4,3.4,2.7,6,3.7c2.6,1,5.4,1.5,8.4,1.5
				c3.4,0,6.3-0.6,8.9-1.7c2.5-1.1,4.2-2.2,5.2-3.3l1.4-1.7H477c-0.5,1.3-1.1,2.6-1.7,3.7c-1.7,2.9-3.9,5.5-6.7,7.7
				c-3.8,3.1-8.3,5.3-13.5,6.5c-3.2,0.7-6.5,1-10,1c-10.1,0-18.4-2.9-24.8-8.6c-6.4-5.8-9.6-13.6-9.6-23.6c0-9.9,3.2-17.8,9.6-23.6
				c6.4-5.8,14.7-8.6,24.8-8.6c10.2,0,18.4,2.9,24.9,8.6C476.3,84.8,479.5,92.7,479.5,102.6z M453.7,84.1c-2.6-0.9-5.4-1.4-8.6-1.4
				c-3.1,0-5.9,0.5-8.4,1.4c-2.5,0.9-4.4,2.1-5.8,3.5c-2.6,2.8-4.2,5.3-4.8,7.6l-0.3,1.4h38.5c0-1-0.5-2.6-1.6-4.8
				c-0.7-1.5-1.7-2.9-3-4.3C458.2,86.1,456.2,85,453.7,84.1z"/>
			<path d="M544.9,91.6h-14.4c0-3.1-1.1-5.4-3.2-7.1c-2.2-1.7-6.1-2.5-11.8-2.5c-9.7,0-14.6,2.4-14.6,7.1c0,2,1.2,3.5,3.5,4.5
				c2.2,1.1,5.1,1.7,8.6,1.9c3.7,0.2,7.5,0.6,11.2,1.2c4,0.5,7.7,1.3,11.2,2.2c3.5,1,6.3,2.8,8.6,5.6c2.3,2.8,3.4,6.3,3.4,10.6
				c0,4.6-1.4,8.5-4.2,11.5c-2.9,3.1-6.5,5.3-11,6.4c-4.5,1.2-9.9,1.9-16,1.9c-9.3,0-16.8-1.7-22.5-5.1c-5.6-3.4-8.5-8.8-8.5-16.4
				v-2h14.5v2c0,6.6,5.5,9.9,16.5,9.9c11.1,0,16.7-2.7,16.8-8.1c0-2.6-1.6-4.5-4.8-5.5c-3.3-1.1-7.1-1.7-11.6-2
				c-4.6-0.3-9.1-0.8-13.6-1.5c-4.6-0.7-8.5-2.4-11.6-5.1c-3.2-2.7-4.8-6.6-4.8-11.7c0-6.3,2.6-11,7.9-14.2
				c5.3-3.2,12.4-4.8,21.3-4.8c9.1,0,16.2,1.7,21.5,5.2C542.2,79,544.9,84.4,544.9,91.6z"/>
			<path d="M556.7,110.4V83.8h-10.1v-8.9l15-17.1h9.1v13.9H592v12.2h-21.4v24.7c0,8.9,4.4,13.4,13.3,13.5c1.8,0,3.6-0.2,5.3-0.6
				c1.7-0.4,2.9-0.9,3.7-1.4l1-0.6v13.1c-3.1,1.6-7.1,2.4-11.8,2.3C565.1,134.8,556.7,126.7,556.7,110.4z"/>
			<path d="M657.6,133.6h-33.8V45.1h33.8c13.8,0,24.7,3.9,32.6,11.8c7.9,8,11.8,18.8,11.8,32.4c0,13.7-3.9,24.4-11.8,32.3
				C682.3,129.6,671.5,133.6,657.6,133.6z M639.3,119.9h18.3c8.9,0,15.8-2.8,20.8-8.5c5-5.6,7.4-13,7.4-22.2
				c0-9.1-2.5-16.5-7.4-22.1c-5-5.6-11.9-8.5-20.8-8.5h-18.3V119.9z"/>
			<path d="M749,70.4l6.8,0.7v15.7c-2.5-1-5.8-1.5-9.9-1.5c-6.3,0-11.2,1.9-14.6,5.7c-3.5,3.9-5.2,8.7-5.2,14.4v28.1h-14V71.6h14
				v11.9h0.9c0.6-1.3,1.6-2.8,3-4.6c1.1-1.5,2.5-2.9,4-4.1c1.6-1.3,3.8-2.3,6.5-3.2C743.1,70.8,746,70.4,749,70.4z"/>
			<path d="M762.4,56.4c-1.5-1.3-2.3-3-2.3-5.3c0-2.2,0.8-3.9,2.3-5.3c1.5-1.3,3.6-2,6-2c2.4,0,4.4,0.7,6,2c1.5,1.4,2.2,3.1,2.2,5.3
				c0,2.2-0.7,4-2.2,5.3c-1.5,1.4-3.5,2-6,2C765.9,58.5,763.9,57.8,762.4,56.4z M761.4,71.6h14v61.9h-14V71.6z"/>
			<path d="M832.5,71.6h14.7l-24.1,61.9h-20.6l-24.1-61.9h14.7l19.4,51.1h0.6L832.5,71.6z"/>
			<path d="M916.7,102.6l-0.4,5.1h-53.6c0.4,1.9,1,3.6,1.9,5.2c0.9,1.7,2,3.2,3.2,4.5c1.4,1.4,3.4,2.7,6,3.7c2.6,1,5.4,1.5,8.4,1.5
				c3.4,0,6.3-0.6,8.9-1.7c2.5-1.1,4.2-2.2,5.2-3.3l1.4-1.7h16.5c-0.5,1.3-1.1,2.6-1.7,3.7c-1.7,2.9-3.9,5.5-6.7,7.7
				c-3.8,3.1-8.3,5.3-13.5,6.5c-3.2,0.7-6.5,1-10,1c-10.1,0-18.4-2.9-24.8-8.6c-6.4-5.8-9.6-13.6-9.6-23.6c0-9.9,3.2-17.8,9.6-23.6
				c6.4-5.8,14.7-8.6,24.8-8.6c10.2,0,18.4,2.9,24.9,8.6C913.5,84.8,916.7,92.7,916.7,102.6z M890.8,84.1c-2.6-0.9-5.4-1.4-8.6-1.4
				s-5.9,0.5-8.4,1.4c-2.5,0.9-4.4,2.1-5.8,3.5c-2.6,2.8-4.2,5.3-4.8,7.6l-0.3,1.4h38.5c0-1-0.5-2.6-1.6-4.8c-0.7-1.5-1.7-2.9-3-4.3
				C895.4,86.1,893.4,85,890.8,84.1z"/>
			<path d="M989.6,133.6h-14v-31.3c0-6.4-1.7-11.1-5-14.3c-3.3-3.1-7.7-4.7-13.2-4.7c-5.9,0-10.3,1.7-13.4,5.2
				c-3.1,3.5-4.7,8.1-4.7,13.7v31.3h-14V71.6h14v10h0.9c0.4-1,1.4-2.3,3-3.9c1-1.1,2.4-2.3,4.1-3.5c1.7-1.1,3.9-2,6.7-2.7
				c2.8-0.8,5.7-1.1,8.7-1.1c7.9,0,14.3,2.3,19.4,7c5,4.7,7.6,11.8,7.6,21.2V133.6z"/>
			<path d="M362.6,253.4c-7.8-8.4-11.8-19.3-11.8-32.7c0-13.3,3.9-24.2,11.8-32.7c7.8-8.5,18.2-12.8,31.3-12.8
				c7.2,0,13.7,1.4,19.4,4.1c5.8,2.8,10.1,6.2,13.1,10.1c2.9,3.9,5.2,7.7,6.7,11.5c1.5,3.8,2.3,7.1,2.3,10.1h-8.2
				c0-2.6-1.3-6.3-4-11.1c-1.6-2.8-3.6-5.5-5.9-7.9c-2.3-2.4-5.5-4.5-9.6-6.3c-4.1-1.8-8.7-2.7-13.8-2.7c-10.7,0-19.1,3.5-25.2,10.6
				c-6.2,7.1-9.3,16.1-9.3,27s3.1,19.9,9.3,27c6.2,7.1,14.6,10.7,25.2,10.7c5,0,9.6-0.9,13.8-2.7c4.1-1.8,7.3-3.9,9.6-6.3
				c2.3-2.4,4.2-5,5.9-7.9c2.7-4.8,4-8.5,4-11h8.2c0,3-0.8,6.3-2.3,10.1c-1.5,3.8-3.8,7.6-6.7,11.4c-3,3.9-7.4,7.3-13.1,10.1
				c-5.7,2.8-12.2,4.1-19.4,4.1C380.9,266.2,370.4,261.9,362.6,253.4z"/>
			<path d="M453.5,257.2c-6.2-6-9.3-13.8-9.3-23.3c0-9.5,3.1-17.3,9.3-23.3c6.1-6,14-8.9,23.5-8.9c9.5,0,17.3,3,23.5,8.9
				c6.1,6,9.2,13.7,9.2,23.3s-3.1,17.3-9.2,23.3c-6.1,6-14,8.9-23.5,8.9C467.5,266.2,459.6,263.2,453.5,257.2z M477,258.7
				c7.4,0,13.3-2.4,17.9-7.1c4.5-4.7,6.8-10.6,6.8-17.6c0-7-2.3-12.9-6.8-17.6c-4.6-4.7-10.5-7-17.9-7c-7.3,0-13.3,2.3-17.9,7
				c-4.6,4.8-6.9,10.6-6.9,17.6s2.3,12.8,6.9,17.6C463.7,256.3,469.6,258.7,477,258.7z"/>
			<path d="M579.5,265h-7.7v-33.1c0-7.9-2-13.6-5.9-17.2c-4-3.7-9.2-5.5-15.7-5.5c-7,0-12.3,2.1-16,6.4c-3.7,4.2-5.5,9.8-5.5,16.7
				V265h-7.7V203h7.7v9.7h0.5c0.4-0.9,1.4-2.2,3.1-3.8c1.3-1.3,2.7-2.4,4.3-3.3c1.7-1.1,4-2,6.9-2.7c2.8-0.7,5.8-1.1,8.8-1.1
				c7.9,0,14.5,2.4,19.6,7.1c5.2,4.7,7.7,11.9,7.7,21.5V265z"/>
			<path d="M603.4,199.9v3.1h19.9v7.3h-19.9V265h-7.7v-54.6h-10.6V203h10.6v-3.8c0-8.1,2-14.1,5.9-18.1c3.9-3.9,9-5.9,15.3-5.9
				c2.2,0,4.3,0.2,6.4,0.6c2.1,0.4,3.7,0.9,4.8,1.4l1.3,0.7v7.6c-2.7-2-6.7-3-11.8-3c-4.7,0-8.2,1.4-10.6,4.3
				C604.6,189.8,603.4,194.1,603.4,199.9z"/>
		</g>
		<g>
			<g>
				<path class="st0" d="M713.2,265.3h-54.4v-8.7c0-3.7,1.1-6.9,3.2-9.7c2.1-2.8,4.7-5,7.9-6.6c2.7-1.4,6.1-3,10.2-4.8
					c3.8-1.7,7.2-3.1,10.3-4.3c3.1-1.2,5.8-2.9,7.9-5.1c2.1-2.1,3.1-4.5,3.1-7.2c0-7-4.9-10.5-14.6-10.5c-9.8,0-14.6,4-14.6,12v2.3
					h-11.6v-2.3c0-7.1,2.3-12.6,6.9-16.4c4.6-3.8,11-5.7,19.2-5.7c8.2,0,14.6,1.8,19.2,5.4c4.6,3.7,7,8.7,7,15.2c0,3.8-1,7.2-3,10.2
					c-2,3-4.6,5.4-7.7,7.2c-3.3,1.9-6.6,3.6-10,5.2c-3.4,1.5-6.8,2.9-10,4.1c-3.1,1.2-5.7,2.5-7.7,4.1c-2.1,1.6-3.1,3.4-3.1,5.3
					h41.7V265.3z"/>
				<path class="st0" d="M727.3,256.8c-5.4-6.2-8.1-14.4-8.1-24.5c0-10,2.7-18.2,8.1-24.5c5.4-6.3,12.8-9.4,22.3-9.4
					c9.4,0,16.8,3.1,22.2,9.4c5.4,6.3,8.1,14.5,8.1,24.5c0,10.1-2.7,18.3-8.1,24.5c-5.4,6.3-12.8,9.4-22.2,9.4
					C740.1,266.2,732.7,263.1,727.3,256.8z M763,249.1c3.2-4.4,4.8-10,4.8-16.8c0-6.8-1.6-12.5-4.8-16.9c-3.2-4.4-7.7-6.5-13.5-6.5
					c-5.8,0-10.3,2.2-13.5,6.5c-3.2,4.4-4.8,10-4.8,16.9c0,6.8,1.6,12.4,4.8,16.8c3.2,4.4,7.7,6.6,13.5,6.6
					C755.3,255.7,759.8,253.5,763,249.1z"/>
				<path class="st0" d="M840.3,265.3H786v-8.7c0-3.7,1.1-6.9,3.2-9.7c2.1-2.8,4.7-5,7.9-6.6c2.7-1.4,6.1-3,10.2-4.8
					c3.8-1.7,7.2-3.1,10.3-4.3c3.1-1.2,5.8-2.9,7.9-5.1c2.1-2.1,3.1-4.5,3.1-7.2c0-7-4.9-10.5-14.6-10.5c-9.8,0-14.6,4-14.6,12v2.3
					h-11.6v-2.3c0-7.1,2.3-12.6,6.9-16.4c4.6-3.8,11-5.7,19.2-5.7c8.2,0,14.6,1.8,19.2,5.4c4.6,3.7,7,8.7,7,15.2c0,3.8-1,7.2-3,10.2
					c-2,3-4.6,5.4-7.7,7.2c-3.3,1.9-6.6,3.6-10,5.2c-3.4,1.5-6.8,2.9-10,4.1c-3.1,1.2-5.7,2.5-7.7,4.1c-2.1,1.6-3.1,3.4-3.1,5.3
					h41.7V265.3z"/>
				<path class="st0" d="M906.1,265.3h-54.4v-8.7c0-3.7,1.1-6.9,3.2-9.7c2.1-2.8,4.7-5,7.9-6.6c2.7-1.4,6.1-3,10.2-4.8
					c3.8-1.7,7.2-3.1,10.3-4.3c3.1-1.2,5.8-2.9,7.9-5.1c2.1-2.1,3.1-4.5,3.1-7.2c0-7-4.9-10.5-14.6-10.5c-9.8,0-14.6,4-14.6,12v2.3
					h-11.6v-2.3c0-7.1,2.3-12.6,6.9-16.4c4.6-3.8,11-5.7,19.2-5.7c8.2,0,14.6,1.8,19.2,5.4c4.6,3.7,7,8.7,7,15.2c0,3.8-1,7.2-3,10.2
					c-2,3-4.6,5.4-7.7,7.2c-3.3,1.9-6.6,3.6-10,5.2c-3.4,1.5-6.8,2.9-10,4.1c-3.1,1.2-5.7,2.5-7.7,4.1c-2.1,1.6-3.1,3.4-3.1,5.3
					h41.7V265.3z"/>
			</g>
		</g>
	</g>
	<g>
		<path class="st1" d="M79.4,112.7H57.6V99.9h58.1v12.8H93.9v52H79.4V112.7z"/>
		<path class="st1" d="M148.5,164.7h-25.9V99.9h25.9c10.4,0,18.5,2.8,24.4,8.5c5.8,5.7,8.7,13.7,8.7,23.9s-2.9,18.1-8.7,23.8
			C167,161.8,158.9,164.7,148.5,164.7z M136.9,151.9h11.5c5.8,0,10.3-1.8,13.4-5.4c3.1-3.6,4.6-8.3,4.6-14.2
			c0-5.9-1.5-10.6-4.6-14.2c-3.1-3.6-7.6-5.4-13.4-5.4h-11.5V151.9z"/>
		<path class="st1" d="M196,156.6c-6-6-9-14.1-9-24.3c0-10.2,3-18.3,9-24.4c5.9-6,14-8.9,24.2-8.9c9.8,0,17.6,2.5,23.6,7.6
			c5.9,5.1,8.9,11.4,8.9,19.1h-15.4c0-0.4-0.1-0.9-0.3-1.5c-0.1-0.7-0.6-1.8-1.2-3.3c-0.8-1.6-1.7-3-2.8-4.2c-1.1-1.2-2.8-2.3-5-3.3
			c-2.3-1-4.8-1.4-7.8-1.4c-5.7,0-10.2,1.9-13.3,5.7c-3.2,3.8-4.7,8.7-4.7,14.6c0,5.9,1.6,10.8,4.8,14.6c3.2,3.8,7.6,5.7,13.3,5.7
			c2.8,0,5.3-0.5,7.6-1.4c2.3-0.9,4-2.1,5.2-3.5c2.4-2.8,3.7-5.3,4-7.5l0.3-1.4h15.4c0,7.7-3,14-8.9,19c-6,5.1-13.8,7.6-23.6,7.6
			C210,165.6,201.9,162.6,196,156.6z"/>
	</g>
</g>
</svg>
